<svg width="116" height="18" viewBox="0 0 116 18" fill="none" xmlns="http://www.w3.org/2000/svg">
<path d="M77.1428 14.43H67.2936V10.4008H76.3489C76.5889 10.4008 76.7851 10.1954 76.7851 9.94154V7.71C76.7851 7.45615 76.5889 7.25077 76.3489 7.25077H67.2936V3.56077H76.9397C77.1797 3.56077 77.3759 3.35538 77.3759 3.10154V0.87C77.3759 0.616154 77.1797 0.410769 76.9397 0.410769H64.552C64.312 0.410769 64.1159 0.616154 64.1159 0.87V17.1185C64.1159 17.3723 64.312 17.5777 64.552 17.5777H77.1451C77.3851 17.5777 77.5813 17.3723 77.5813 17.1185V14.8869C77.5789 14.6354 77.3851 14.43 77.1428 14.43ZM35.7243 0.410769H33.0843C32.8443 0.410769 32.6482 0.616154 32.6482 0.87V17.1185C32.6482 17.3723 32.8443 17.5777 33.0843 17.5777H35.7243C35.9643 17.5777 36.1605 17.3723 36.1605 17.1185V0.87C36.1605 0.616154 35.9666 0.410769 35.7243 0.410769ZM56.1912 8.89846C55.3951 8.27769 54.4928 7.93846 52.7389 7.59923L49.6212 7.01308C48.2089 6.74308 47.8189 6.60692 47.3528 6.32539C46.8866 6.06692 46.6189 5.62846 46.6189 5.12769C46.6189 3.85846 48.0889 3.00462 50.2766 3.00462C51.5966 3.00462 52.5751 3.29308 53.272 3.88615C53.7612 4.29462 53.9597 4.68692 54.0336 5.44154C54.0451 5.55923 54.0912 5.67 54.172 5.75538L54.2943 5.88462C54.3843 5.97923 54.5066 6.03462 54.6336 6.03462H56.6805C56.8397 6.03462 56.9874 5.95154 57.0751 5.81308L57.1443 5.70462C57.2089 5.60538 57.2389 5.48077 57.2251 5.36077C57.0197 3.42 56.4959 2.32846 55.3282 1.38462C54.1789 0.466154 52.4874 0 50.2974 0C46.0674 0 43.4389 2.04 43.4389 5.32385C43.4389 7.05 44.3089 8.60538 45.6612 9.28846C46.4089 9.65308 47.5974 10.0015 49.2036 10.3246L52.0882 10.8369C54.2066 11.2385 54.4997 11.9331 54.4997 12.6254C54.4997 14.0862 53.0366 14.9931 50.6828 14.9931C49.012 14.9931 47.7843 14.6077 47.0251 13.8369C46.5151 13.3477 46.3166 12.8262 46.2797 11.8246C46.2751 11.7069 46.2336 11.5915 46.1597 11.5015L46.0536 11.3746C45.9636 11.2662 45.832 11.2062 45.6959 11.2062H43.5797C43.432 11.2062 43.2936 11.2777 43.2036 11.4L43.1182 11.5154C43.0466 11.6123 43.0097 11.7346 43.0166 11.8546C43.102 13.6592 43.4066 14.6354 44.1959 15.66C45.3959 17.2108 47.5489 17.9954 50.5951 17.9954C52.6005 17.9954 53.9989 17.6562 55.2659 16.8623C56.8351 15.9 57.772 14.2246 57.772 12.3785C57.772 10.9408 57.1951 9.67154 56.1912 8.89846ZM114.823 0.410769H112.003C111.862 0.410769 111.728 0.482308 111.647 0.604615L107.057 7.46077L102.509 0.606923C102.428 0.484615 102.294 0.410769 102.151 0.410769H99.172C98.8143 0.410769 98.6089 0.842308 98.8213 1.14462L105.407 10.5208V17.1208C105.407 17.3746 105.604 17.58 105.844 17.58H108.149C108.389 17.58 108.585 17.3746 108.585 17.1208V10.5208L115.171 1.14462C115.388 0.842308 115.183 0.410769 114.823 0.410769ZM96.9959 14.43H87.9405V0.87C87.9405 0.616154 87.7443 0.410769 87.5043 0.410769H85.1989C84.9589 0.410769 84.7628 0.616154 84.7628 0.87V17.1185C84.7628 17.3723 84.9589 17.5777 85.1989 17.5777H96.9959C97.2359 17.5777 97.432 17.3723 97.432 17.1185V14.8869C97.432 14.6354 97.2382 14.43 96.9959 14.43ZM26.4705 0.410769H23.6874C23.4543 0.410769 23.2051 0.602308 23.1336 0.835385L19.3905 12.7938C19.3166 13.0269 19.1989 13.0269 19.1251 12.7938L15.382 0.833077C15.3082 0.6 15.0589 0.408462 14.8259 0.408462H11.9551C11.722 0.408462 11.4728 0.6 11.4012 0.833077L7.65817 12.7938C7.58432 13.0269 7.46663 13.0269 7.39278 12.7938L3.64971 0.833077C3.57586 0.6 3.32663 0.408462 3.09586 0.408462H0.310474C0.0773972 0.408462 -0.0518336 0.6 0.0197049 0.833077L5.12894 17.1554C5.20278 17.3885 5.45201 17.58 5.68278 17.58H9.36124C9.59432 17.58 9.84355 17.3885 9.91509 17.1554L13.2543 6.48462C13.3282 6.25154 13.4459 6.25154 13.5197 6.48462L16.8589 17.1554C16.9328 17.3885 17.182 17.58 17.4128 17.58H21.0912C21.3243 17.58 21.5736 17.3885 21.6451 17.1554L26.7543 0.833077C26.8328 0.6 26.7036 0.410769 26.4705 0.410769Z" fill="#0055B8"/>
</svg>
